<svg xmlns="http://www.w3.org/2000/svg"><symbol id="mecha-stilts" viewBox="0 0 256 256"><path fill="#fff" d="M130.5.2L241 64v127.5l-110.5 63.8-110.4-63.8V64z"/><path fill="#ff9500" d="M66.4 174.9a2.1 2.1 0 0 1 0-4.2h10.5v-13.2H66.4a2 2 0 0 1-2.1-2.1v-41.3a2 2 0 0 1 2.1-2h13.9c1-29.8 23.2-46.1 50.2-46.1s49.3 16.3 50.3 46.1h13.8a1.9 1.9 0 0 1 2.1 2v41.3a1.9 1.9 0 0 1-2.1 2.1h-10.4v13.2h10.4a2.1 2.1 0 0 1 0 4.2zm2.1-58.7v37.1h124v-37.1zm12.6 41.3v13.2h13.4v-13.2zm3.4-45.4h92.1c-1-27.1-21.6-41.9-46.1-41.9s-45 14.8-46 41.9zm14.2 45.4v13.2h20.9v-13.2zm25.1 0v13.2h13.4v-13.2zm56.8-14.2h-51.1a2.3 2.3 0 0 1-2.1-2.1 2.2 2.2 0 0 1 2.1-2.1h51.1a2.2 2.2 0 0 1 2.1 2.1 2.3 2.3 0 0 1-2.1 2.1zm-39.2 14.2v13.2h21v-13.2zm25.2 0v13.2H180v-13.2z"/></symbol><symbol id="space-bubbles" viewBox="0 0 256 256"><path fill="#fff" d="M128 .4l110.5 63.8v127.5L128 255.5 17.6 191.7V64.2z"/><path fill="#ff9500" d="M65.6 179.7l-4.8-6.9a2.2 2.2 0 0 1 .2-2.5l17.4-20.6h-8.6a2 2 0 0 1-2.1-2.1v-15a2 2 0 0 1 2.1-2.1H82a57.8 57.8 0 0 1-2.3-16 49.5 49.5 0 0 1 99 0 51.2 51.2 0 0 1-2.3 16h12.2a2 2 0 0 1 2.1 2.1v15a2 2 0 0 1-2.1 2.1h-10.7l17.2 20.6a2.3 2.3 0 0 1 0 2.5l-4.8 6.9a2.4 2.4 0 0 1-2.8.6l-10-5.2H78.4l-10.1 5.2a2.3 2.3 0 0 1-2.7-.6zm31.9-30H83.6l-18.4 21.8 2.9 4.2 35.4-18.6zm-25.6-15.1v10.9h114.6v-10.9zm14.5-4.1H172a50.5 50.5 0 0 0 2.5-16 45.3 45.3 0 0 0-45.2-45.2c-24.9 0-45.5 20.3-45.5 45.2 0 5.5.5 11.1 2.6 16zm20.1 29.9l-19.9 10.5h28.5zm-3.6-10.7l17.6 21.2h15.1l17.6-21.2zm46.7 10.7l-8.6 10.5h28.5zm22.8-10.7h-13.8l-6.3 7.4 35.6 18.6 3-4z"/></symbol><symbol id="super-domes" viewBox="0 0 256 256"><path fill="#fff" d="M130.5.5L240.4 64v126.9l-109.9 63.5-109.9-63.5V64z"/><path fill="#ff9500" d="M70.3 174.3a1.9 1.9 0 0 1-2.1-2.1V147H40.7a2.1 2.1 0 1 1 0-4.1h15.6v-13.6a2 2 0 0 1 2.1-2.1h8.1a66 66 0 0 1 63.8-50.6c.2-.2.4-.2.8 0 30.9.2 56.5 21.9 63.4 50.6h8.1a2 2 0 0 1 2.1 2.1v13.6h15.7a2.1 2.1 0 0 1 0 4.1h-27.6v25.2a1.9 1.9 0 0 1-2 2.1zm-9.8-42.9v11.5h140.1v-11.5zm65.8-50.5c-26.6 1.7-48.9 21.1-55.4 46.3h22.3zm-54 66.1v23.2h56.1V147zm56.1-61.9l-30 42.1h30zm4.2-4.4v46.5h57.5c-6.4-25.8-29.8-45.4-57.5-46.5zm0 66.3v23.2h9.4V147zm13.5 0v23.2h42.6V147z"/></symbol></svg>